<?xml version="1.0" encoding="UTF-8" standalone="no"?><svg xmlns:svg="http://www.w3.org/2000/svg" xmlns="http://www.w3.org/2000/svg" version="1.0" width="197" height="197" id="svg2"><path d="M 98,0 C 43.904,1.0880186e-14 9.2375326e-17,43.904 0,98 C 0,152.096 43.904,196 98,196 C 152.096,196 196,152.096 196,98 C 196,43.904 152.096,-2.1667996e-14 98,0 z M 98,20 C 141.056,20 176,54.944 176,98 C 176,141.056 141.056,176 98,176 C 54.944,176 20,141.056 20,98 C 20,54.944 54.944,20 98,20 z" style="fill:#000" /><path d="M 97.28125,43 C 71.21839,43 49.38119,61.152555 43.71875,85.5 L 70,85.5 C 74.741911,75.172905 85.17979,68 97.28125,68 C 113.84124,67.999998 127.28125,81.44 127.28125,98 C 127.28124,114.56 113.84125,128 97.28125,128 C 85.17978,128 74.741911,120.8271 70,110.5 L 43.71875,110.5 C 49.38118,134.84745 71.21838,153 97.28125,153 C 127.64125,153 152.28124,128.36 152.28125,98 C 152.28125,67.64 127.64124,42.999998 97.28125,43 z" style="fill:#000" /></svg>
